<svg width="1080" height="1080" viewBox="0 0 1080 1080" fill="none" xmlns="http://www.w3.org/2000/svg">
<path fill-rule="evenodd" clip-rule="evenodd" d="M581.63 799.113C576.07 799.569 570.573 797.677 566.471 793.897C562.369 790.117 560.035 784.793 560.035 779.215C560 717.565 560 540 560 540V300.785C560 295.197 562.338 289.864 566.447 286.077C570.557 282.29 576.063 280.396 581.633 280.852C715.104 291.879 820 403.69 820 540C820 676.31 715.104 788.121 581.63 799.113ZM500 280C511.046 280 520 288.954 520 300V500C520 511.046 511.046 520 500 520H280C268.954 520 260 511.046 260 500V300C260 288.954 268.954 280 280 280H500ZM500 560C511.046 560 520 568.954 520 580V780C520 791.046 511.046 800 500 800H280C268.954 800 260 791.046 260 780V580C260 568.954 268.954 560 280 560H500Z" fill="#FEFEFE"/>
<path fill-rule="evenodd" clip-rule="evenodd" d="M880.006 880H180.007V200L880.006 200V880ZM220.007 240V840H840.006V240L220.007 240Z" fill="#FEFEFE"/>
</svg>
